<?xml version="1.0" encoding="utf-8"?>
<!-- Generator: Adobe Illustrator 21.1.0, SVG Export Plug-In . SVG Version: 6.00 Build 0)  -->
<svg version="1.1" id="Layer_1" xmlns="http://www.w3.org/2000/svg" xmlns:xlink="http://www.w3.org/1999/xlink" x="0px" y="0px"
	 viewBox="0 0 700 69.7" style="enable-background:new 0 0 700 69.7;" xml:space="preserve">
<style type="text/css">
	.st0{fill:#FF0000;}
	.st1{fill:#FFFFFF;}
	.st2{fill:url(#);}
</style>
<g>
	<g>
		<path class="st0" d="M42.2,52.4c0,9.8-6,16.3-18.3,16.3H0V10.4h18.9c12.6,0,19.2,6,19.2,16c0,5.1-2.2,9.3-6.8,11.5
			C37.8,39.7,42.2,44.1,42.2,52.4z M11.6,20.5v13.7h7.9c5.2,0,7.4-3.1,7.4-7c0-3.9-2.5-6.7-7.9-6.7H11.6z M30.5,51
			c0-3.9-2.2-7.5-9-7.5h-9.8v14.8h10.1C28.3,58.3,30.5,54.8,30.5,51z"/>
		<path class="st0" d="M76.1,26.8v10.4c-8.8,0-13,2.6-13,11.4v20.2H51.5V27.3h11.1v6.6C64.7,30.2,70.1,26.8,76.1,26.8z"/>
		<path class="st0" d="M117.7,67.6v1.1h-10.8l-0.9-4.5c-3.1,3.7-8.5,5.3-13.3,5.3c-6.5,0-12.9-2.9-12.9-11.5
			c0-8.6,6.4-11.5,15.1-13.4l6.8-1.5c2.9-0.7,4-1.7,4-3.4c0-4.1-3.7-5.2-7-5.2c-4.2,0-7.4,1.7-8.1,6.3l-10.3-1.9
			c1.7-8.6,8-12.5,19-12.5c8.3,0,17.4,2.5,17.4,15v16C116.7,62.5,117.2,65.7,117.7,67.6z M106.2,49.7l-9.8,2.8
			c-3.2,0.8-5.6,1.9-5.6,4.7c0,3,2.5,4.4,5.4,4.4C101.8,61.6,106.2,58,106.2,49.7z"/>
		<path class="st0" d="M172.2,48.1c0,13.5-9,21.6-19.9,21.6c-5.7,0-10.7-2.3-13.1-6.4l-0.3,5.4h-11V6.8h11.6v25.5
			c2.4-3.7,7.3-5.8,12.7-5.8C163.2,26.4,172.2,34.5,172.2,48.1z M160.6,48.1c0-7.5-4.8-12-11-12c-6.1,0-11,4.8-11,12s4.8,12,11,12
			C155.8,60,160.6,55.5,160.6,48.1z"/>
		<path class="st0" d="M216,67.6v1.1h-10.8l-0.9-4.5c-3.1,3.7-8.5,5.3-13.3,5.3c-6.5,0-12.9-2.9-12.9-11.5c0-8.6,6.4-11.5,15.1-13.4
			l6.8-1.5c2.9-0.7,4-1.7,4-3.4c0-4.1-3.7-5.2-7-5.2c-4.2,0-7.4,1.7-8.1,6.3l-10.3-1.9c1.7-8.6,8-12.5,19-12.5
			c8.3,0,17.4,2.5,17.4,15v16C214.9,62.5,215.4,65.7,216,67.6z M204.5,49.7l-9.8,2.8c-3.2,0.8-5.6,1.9-5.6,4.7c0,3,2.5,4.4,5.4,4.4
			C200,61.6,204.5,58,204.5,49.7z"/>
		<path class="st0" d="M266.1,40.8v27.9h-11.6V43.3c0-5.5-3.4-7.5-7.4-7.5c-4.8,0-9.2,2.4-9.2,10.1v22.9h-11.6V27.3h11.6v4.6
			c2.9-3.4,7.4-5.4,12.9-5.4C260.6,26.4,266.1,31.6,266.1,40.8z"/>
		<path class="st0" d="M280.2,55.7V36.2H272v-8.9h2.6c4.4,0,6.8-1.7,6.8-7.9v-5.5h10.5v13.4h8.5v8.9h-8.5v18.3
			c0,3.7,1.8,5.4,4.8,5.4h3.7v8.8h-7.7C284.7,68.7,280.2,64,280.2,55.7z"/>
		<path class="st1" d="M389.2,68.7l-3.8-46.8l-18.1,46.8h-4.3l-18-46.7l-3.8,46.7H334l4.3-56.8h9.5l17.2,44.3l17.3-44.3h9.6
			l4.3,56.8H389.2z"/>
		<path class="st1" d="M441.7,29.1v39.6H435l-0.2-5.2c-2.5,3.8-6.7,6-11.9,6c-8.1,0-13.7-4.8-13.7-13.7V29.1h7v25.1
			c0,6.7,4,9.4,8.7,9.4c5.4,0,9.8-3.3,9.8-10.8V29.1H441.7z"/>
		<path class="st1" d="M455.9,6.8h7.1v61.9h-7.1V6.8z"/>
		<path class="st1" d="M479.2,57.9V34.6h-8.1v-5.6h3c4.2,0,5.6-1.7,5.6-6v-7.2h6.5v13.2h9.1v5.6h-9.1v22.6c0,3.9,2.3,5.9,5.5,5.9
			h3.6v5.6h-5.6C483.3,68.7,479.2,64.8,479.2,57.9z"/>
		<path class="st1" d="M504.2,15c0-2.6,2.1-4.7,4.7-4.7c2.5,0,4.7,2.1,4.7,4.7s-2.1,4.7-4.7,4.7C506.4,19.8,504.2,17.6,504.2,15z
			 M505.4,29.1h7v39.6h-7V29.1z"/>
		<path class="st1" d="M523.3,48.9c0-12.4,8.5-20.6,19.8-20.6c8.7,0,15.7,4.8,18.1,13.1l-6.5,1c-1.9-5.4-6.3-8.3-11.6-8.3
			c-7.3,0-12.8,5.8-12.8,14.8c0,8.9,5.5,14.7,12.8,14.7c5.4,0,9.8-2.9,11.6-8.3l6.5,1.1c-2.5,8.3-9.5,13.1-18.1,13.1
			C531.7,69.4,523.3,61.2,523.3,48.9z"/>
		<path class="st1" d="M568.5,58.6c0-8.2,6.4-11,15-12.5l6.4-1c2.4-0.4,3.5-1.7,3.5-3.7c0-5.8-4.2-7.8-8.7-7.8
			c-4.6,0-8.5,2.1-9.2,7.4l-6.3-1.3c1.2-7.7,7-11.3,15.8-11.3c7.9,0,15.2,3.3,15.2,13.7v16.4c0,4.3,1.2,5.2,4,5.2h0.6v5h-3.5
			c-4,0-6.7-1.7-7.5-5.4h-0.3c-3.2,4.4-8.1,6.1-13,6.1C574,69.5,568.5,66.2,568.5,58.6z M594,49.5l-10.5,2c-5.3,0.9-8.1,2.6-8.1,6.5
			c0,4.1,3.1,5.8,6.9,5.8C589.2,63.8,594,58.5,594,49.5z"/>
		<path class="st1" d="M668,41.1v27.6h-7V42.9c0-6.1-3.5-8.7-7.7-8.7c-4.8,0-8.3,3.1-8.3,10v24.5h-7.1V43.2c0-6.2-3.5-9-7.8-9
			c-4.6,0-8.3,3.1-8.3,10.2v24.3h-7V29.1h7v5.1c2.3-3.7,6.1-5.9,10.8-5.9c5,0,9.2,2.2,11.2,6.5c2.4-4.2,6.5-6.5,11.5-6.5
			C662.6,28.3,668,32.8,668,41.1z"/>
	</g>
	<rect x="676.1" y="12" class="st0" width="12" height="12"/>
	<rect x="688" class="st0" width="12" height="12"/>
</g>
</svg>
